<svg width="132" height="18" viewBox="0 0 132 18" fill="none" xmlns="http://www.w3.org/2000/svg">
<g clip-path="url(#clip0_29_9)">
<path fill-rule="evenodd" clip-rule="evenodd" d="M0 17.3644V0.610001H4.61973L9.49891 11.867H9.70671L14.5859 0.610001H19.2056V17.3644H15.5721V6.45943H15.4252L10.84 17.2826H8.3656L3.78046 6.41842H3.63356V17.3644H0ZM54.3383 17.3644H50.5921V0.610001H62.3233V3.53068H54.3383V7.52284H61.5447V10.4435H54.3383V17.3644ZM119.369 4.79866H123.176L125.616 9.19167L128.116 4.79866H131.896L128.047 11.0817L132 17.3644H128.237L125.616 13.0205L123.038 17.3644H119.231L123.176 11.0817L119.369 4.79866ZM94.4972 3.53068H89.0728V0.610001H103.624V3.53068H98.1997V17.3644H94.4972V3.53068ZM29.8035 8.85624V8.80717C29.805 8.64116 29.7845 8.47562 29.7426 8.3144C29.6727 8.03906 29.5141 7.79105 29.2887 7.60462C28.9991 7.36534 28.608 7.22704 28.1152 7.18972C28.0206 7.18268 27.9258 7.17922 27.8309 7.17935C27.3308 7.17935 26.9078 7.2576 26.5619 7.4141C26.4513 7.46384 26.3461 7.52355 26.2476 7.59241C26.0369 7.7376 25.8555 7.91738 25.7119 8.12319C25.6051 8.27894 25.5232 8.44881 25.469 8.62725L22.0606 8.36555C22.1829 7.80401 22.4177 7.26978 22.7522 6.79163C22.8531 6.64883 22.963 6.51189 23.0813 6.38156C23.4895 5.93626 23.986 5.57091 24.5428 5.30618C24.708 5.22619 24.8771 5.15369 25.0495 5.08893C25.5119 4.91775 25.9934 4.79672 26.4847 4.72817C26.936 4.66446 27.3919 4.63335 27.8482 4.6351C28.5423 4.63266 29.2341 4.70994 29.9085 4.86524C29.9297 4.87023 29.9509 4.8753 29.9721 4.88045C30.4205 4.98663 30.854 5.14276 31.2635 5.34557C31.4417 5.43451 31.6142 5.5332 31.7802 5.64114C32.3079 5.98486 32.7246 6.42534 33.0302 6.96257C33.2123 7.28752 33.3395 7.63738 33.4073 7.99948C33.4631 8.293 33.4903 8.59074 33.4887 8.88896V17.3644H29.9938V15.6219H29.89C29.6763 16.015 29.3856 16.3663 29.0334 16.6569C28.6758 16.9541 28.2461 17.1859 27.7444 17.3522C27.4634 17.4439 27.1735 17.5091 26.8789 17.5469C26.6058 17.5833 26.3159 17.6016 26.0091 17.6017H26.0055C25.59 17.6037 25.1753 17.5662 24.7677 17.4897C24.4137 17.4228 24.0687 17.319 23.7389 17.1804C23.0976 16.917 22.5518 16.4819 22.1687 15.9287C21.9436 15.5984 21.7845 15.2318 21.6995 14.8471C21.6333 14.5608 21.598 14.2523 21.5938 13.9215C21.5935 13.8993 21.5933 13.8771 21.5933 13.8549C21.5933 13.1567 21.7289 12.5704 21.9999 12.096C22.2609 11.6319 22.6419 11.2379 23.1074 10.9506C23.4772 10.7238 23.8762 10.5426 24.2946 10.4115C24.4294 10.3685 24.5659 10.33 24.7036 10.2961C25.2413 10.1646 25.7881 10.069 26.34 10.01C26.4216 10.001 26.5033 9.9928 26.5851 9.98531C26.769 9.96719 26.9528 9.94838 27.1366 9.92887C27.6601 9.87311 28.0991 9.81967 28.4538 9.76853C28.5774 9.75102 28.7002 9.72912 28.822 9.70287C29.1094 9.64005 29.3299 9.55965 29.4834 9.46167C29.5694 9.40846 29.642 9.3379 29.6958 9.25506C29.7496 9.17221 29.7834 9.07913 29.7947 8.98249C29.8006 8.94064 29.8036 8.89846 29.8035 8.85624ZM113.547 8.85624V8.80717C113.549 8.64116 113.528 8.47562 113.486 8.3144C113.416 8.03906 113.258 7.79105 113.032 7.60462C112.743 7.36534 112.352 7.22704 111.859 7.18972C111.764 7.18268 111.669 7.17922 111.575 7.17935C111.075 7.17935 110.652 7.2576 110.306 7.4141C110.195 7.46384 110.09 7.52355 109.991 7.59241C109.781 7.7376 109.599 7.91738 109.456 8.12319C109.349 8.27894 109.267 8.44881 109.213 8.62725L105.804 8.36555C105.927 7.80401 106.161 7.26978 106.496 6.79163C106.597 6.64883 106.707 6.51189 106.825 6.38156C107.233 5.93626 107.73 5.57091 108.286 5.30618C108.452 5.22619 108.621 5.15369 108.793 5.08893C109.256 4.91775 109.737 4.79672 110.228 4.72817C110.68 4.66446 111.136 4.63335 111.592 4.6351C112.286 4.63266 112.978 4.70994 113.652 4.86524C113.673 4.87023 113.695 4.8753 113.716 4.88045C114.164 4.98663 114.598 5.14276 115.007 5.34557C115.185 5.43451 115.358 5.5332 115.524 5.64114C116.052 5.98486 116.468 6.42534 116.774 6.96257C116.956 7.28752 117.083 7.63738 117.151 7.99948C117.207 8.293 117.234 8.59074 117.232 8.88896V17.3644H113.737V15.6219H113.634C113.42 16.015 113.129 16.3663 112.777 16.6569C112.419 16.9541 111.99 17.1859 111.488 17.3522C111.207 17.4439 110.917 17.5091 110.623 17.5469C110.35 17.5833 110.06 17.6016 109.753 17.6017H109.749C109.334 17.6037 108.919 17.5662 108.511 17.4897C108.157 17.4228 107.812 17.319 107.483 17.1804C106.841 16.917 106.295 16.4819 105.912 15.9287C105.687 15.5984 105.528 15.2318 105.443 14.8471C105.377 14.5608 105.342 14.2523 105.337 13.9215C105.337 13.8993 105.337 13.8771 105.337 13.8549C105.337 13.1567 105.473 12.5704 105.744 12.096C106.005 11.6319 106.386 11.2379 106.851 10.9506C107.221 10.7238 107.62 10.5426 108.038 10.4115C108.173 10.3685 108.31 10.33 108.447 10.2961C108.985 10.1646 109.532 10.069 110.084 10.01C110.165 10.001 110.247 9.9928 110.329 9.98531C110.513 9.96719 110.697 9.94838 110.88 9.92887C111.404 9.87311 111.843 9.81967 112.198 9.76853C112.321 9.75102 112.444 9.72912 112.566 9.70287C112.853 9.64005 113.074 9.55965 113.227 9.46167C113.313 9.40846 113.386 9.3379 113.439 9.25506C113.493 9.17221 113.527 9.07913 113.538 8.98249C113.544 8.94064 113.547 8.89846 113.547 8.85624ZM83.4063 17.3644H79.7208V4.79866H83.2937V6.99113H83.4323C83.5225 6.69279 83.6488 6.4053 83.8087 6.13437C84.0188 5.77694 84.3062 5.46539 84.6521 5.22002C85.2216 4.8196 85.9149 4.60823 86.6245 4.61874C86.7392 4.61891 86.854 4.62275 86.9684 4.63026C87.053 4.63573 87.1374 4.6428 87.2216 4.65145C87.3102 4.66036 87.3986 4.67142 87.4866 4.68463C87.5738 4.69799 87.6556 4.71296 87.7319 4.72955C87.7493 4.73332 87.7666 4.73724 87.7838 4.7413V7.83384C87.6274 7.78946 87.417 7.74953 87.1526 7.71405C87.1237 7.71016 87.0947 7.70639 87.0657 7.70276C86.9198 7.68439 86.7734 7.6701 86.6267 7.65991C86.4935 7.65062 86.3601 7.64585 86.2266 7.64563C85.6845 7.64563 85.2015 7.75605 84.7776 7.97691C84.3537 8.19776 84.0191 8.50454 83.7739 8.89725C83.5835 9.20581 83.465 9.5493 83.4265 9.90468C83.4128 10.0211 83.4061 10.1382 83.4063 10.2553V17.3644ZM40.0379 17.3644H36.3524V0.610001H40.0379V17.3644ZM69.0616 17.4427C69.6247 17.5571 70.1994 17.6132 70.7754 17.61C71.237 17.6116 71.698 17.5764 72.1533 17.5047C72.8946 17.3918 73.6078 17.1515 74.2577 16.7959C75.2282 16.2603 76.0139 15.4704 76.5199 14.5216C76.7987 14.0059 77.0036 13.4574 77.1292 12.8906C77.2568 12.3118 77.3193 11.7219 77.3158 11.1307C77.3175 10.6647 77.2802 10.1993 77.204 9.73881C77.0909 9.03679 76.86 8.35637 76.5199 7.72326C76.0139 6.77449 75.2282 5.98458 74.2577 5.44901C73.708 5.14669 73.1112 4.92837 72.4895 4.80212C71.9262 4.68781 71.3515 4.6318 70.7754 4.6351C70.3139 4.63344 69.853 4.66858 69.3977 4.74015C68.6564 4.85311 67.9433 5.09335 67.2934 5.44901C66.3229 5.98458 65.5371 6.77449 65.0311 7.72326C64.7433 8.25665 64.5343 8.82493 64.4102 9.41214C64.2906 9.97794 64.232 10.5537 64.2352 11.1307C64.2339 11.5655 64.2668 11.9998 64.3337 12.43C64.4431 13.1587 64.6787 13.8654 65.0311 14.5216C65.5371 15.4704 66.3229 16.2603 67.2934 16.7959C67.8431 17.0982 68.4398 17.3165 69.0616 17.4427ZM42.1313 11.1144L39.6917 13.7485L39.7005 9.5681H40.2367L44.4932 4.79866H48.7236L43.0051 11.1144H42.1313ZM48.9745 17.3644H44.6576L40.7473 11.8914L43.2042 9.42895L48.9745 17.3644ZM70.7927 14.9102C71.0444 14.9123 71.2951 14.8804 71.5372 14.8156C71.8267 14.7367 72.095 14.6002 72.3241 14.4152C72.7335 14.0853 73.0435 13.634 73.254 13.0613C73.3764 12.7233 73.462 12.3744 73.5095 12.02C73.5507 11.7169 73.5709 11.4116 73.5699 11.1061C73.5713 10.7642 73.5457 10.4227 73.4934 10.0844C73.4444 9.76687 73.3642 9.45436 73.254 9.15089C73.1653 8.90494 73.0488 8.66875 72.9066 8.44641C72.7497 8.20111 72.5532 7.98058 72.3241 7.79284C71.9146 7.46018 71.4042 7.29385 70.7927 7.29385C70.5339 7.29171 70.2762 7.325 70.0275 7.39268C69.7384 7.47283 69.4701 7.60911 69.2399 7.79284C68.9584 8.01948 68.7247 8.29428 68.5509 8.60283C68.4506 8.77866 68.3656 8.96196 68.2968 9.15089C68.1745 9.48888 68.089 9.83778 68.0415 10.1922C68.0003 10.4952 67.9801 10.8005 67.9811 11.1061C67.9798 11.448 68.0053 11.7895 68.0576 12.1278C68.1066 12.4453 68.1867 12.7578 68.2968 13.0613C68.387 13.3115 68.5069 13.5512 68.6542 13.7759C68.8125 14.0169 69.0102 14.2326 69.2399 14.4152C69.5766 14.679 69.9877 14.8437 70.4224 14.8891C70.5452 14.9034 70.6689 14.9105 70.7927 14.9102ZM29.8293 12.8733V11.5396C29.714 11.6106 29.5569 11.6747 29.3579 11.732C29.2531 11.762 29.1474 11.7893 29.041 11.8138C28.9237 11.8408 28.8059 11.8653 28.6875 11.8873C28.4405 11.9335 28.1924 11.9744 27.9435 12.0101C27.8253 12.027 27.707 12.0438 27.5888 12.0603C27.4821 12.0751 27.3754 12.0897 27.2686 12.1041C26.8504 12.1621 26.4835 12.2533 26.1677 12.3775C26.1569 12.3818 26.1461 12.3861 26.1353 12.3904C25.9966 12.4458 25.8643 12.5147 25.7407 12.5961C25.6046 12.6856 25.4839 12.7942 25.3826 12.9182C25.2556 13.077 25.1718 13.2629 25.1387 13.4596C25.1221 13.5524 25.114 13.6463 25.1143 13.7404C25.1125 13.8972 25.1359 14.0533 25.1838 14.2035C25.266 14.4553 25.4349 14.6738 25.6637 14.8243C25.8847 14.9716 26.1346 15.0757 26.3987 15.1303C26.6017 15.1745 26.8225 15.1966 27.0611 15.1966C27.3185 15.198 27.5752 15.1722 27.8265 15.1199C28.0596 15.0709 28.2849 14.9935 28.497 14.8897C28.7712 14.7573 29.0184 14.5797 29.2268 14.3654C29.3184 14.2702 29.4013 14.1679 29.4746 14.0595C29.6973 13.7291 29.8195 13.3472 29.8279 12.9555C29.8288 12.9281 29.8293 12.9007 29.8293 12.8733ZM113.573 12.8733V11.5396C113.458 11.6106 113.301 11.6747 113.102 11.732C112.997 11.762 112.891 11.7893 112.785 11.8138C112.667 11.8408 112.55 11.8653 112.431 11.8873C112.184 11.9335 111.936 11.9744 111.687 12.0101C111.569 12.027 111.451 12.0438 111.332 12.0603C111.226 12.0751 111.119 12.0897 111.012 12.1041C110.594 12.1621 110.227 12.2533 109.911 12.3775C109.901 12.3818 109.89 12.3861 109.879 12.3904C109.74 12.4458 109.608 12.5147 109.484 12.5961C109.348 12.6856 109.228 12.7942 109.126 12.9182C108.999 13.077 108.915 13.2629 108.882 13.4596C108.866 13.5524 108.858 13.6463 108.858 13.7404C108.856 13.8972 108.88 14.0533 108.927 14.2035C109.01 14.4553 109.179 14.6738 109.407 14.8243C109.628 14.9716 109.878 15.0757 110.142 15.1303C110.345 15.1745 110.566 15.1966 110.805 15.1966C111.062 15.198 111.319 15.1722 111.57 15.1199C111.803 15.0709 112.029 14.9935 112.241 14.8897C112.515 14.7573 112.762 14.5797 112.971 14.3654C113.062 14.2702 113.145 14.1679 113.218 14.0595C113.441 13.7291 113.563 13.3472 113.572 12.9555C113.572 12.9281 113.573 12.9007 113.573 12.8733Z" fill="white" stroke="white" stroke-width="0.944882" stroke-linecap="round"/>
</g>
<defs>
<clipPath id="clip0_29_9">
<rect width="132" height="17" fill="white" transform="translate(0 0.610001)"/>
</clipPath>
</defs>
</svg>
